#N canvas 502 22 778 741 10;
#X obj 97 126 soundfiler;
#X msg 97 94 read -resize data/a.wav a;
#X obj 149 9 inlet;
#X obj 6 13 table a;
#X obj 6 33 table b;
#X obj 270 127 soundfiler;
#X obj 450 126 soundfiler;
#X msg 270 95 read -resize data/b.wav b;
#X msg 450 94 read -resize data/c.wav c;
#X obj 6 53 table c;
#X obj 6 72 table d;
#X obj 6 91 table e;
#X obj 6 110 table f;
#X obj 6 129 table g;
#X obj 6 148 table h;
#X obj 6 167 table i;
#X obj 6 187 table k;
#X obj 6 207 table l;
#X obj 6 227 table m;
#X obj 6 246 table n;
#X obj 6 265 table o;
#X obj 6 285 table p;
#X obj 6 305 table q;
#X obj 6 324 table r;
#X obj 6 343 table s;
#X obj 6 363 table t;
#X obj 6 383 table u;
#X obj 97 187 soundfiler;
#X msg 97 155 read -resize data/d.wav d;
#X obj 269 188 soundfiler;
#X msg 269 156 read -resize data/e.wav e;
#X obj 449 188 soundfiler;
#X msg 449 156 read -resize data/f.wav f;
#X obj 96 250 soundfiler;
#X obj 268 251 soundfiler;
#X obj 448 251 soundfiler;
#X msg 96 218 read -resize data/g.wav g;
#X msg 268 219 read -resize data/h.wav h;
#X msg 448 219 read -resize data/i.wav i;
#X obj 94 315 soundfiler;
#X obj 266 316 soundfiler;
#X obj 446 316 soundfiler;
#X msg 94 283 read -resize data/j.wav j;
#X msg 446 284 read -resize data/k.wav k;
#X obj 91 378 soundfiler;
#X obj 263 379 soundfiler;
#X obj 443 379 soundfiler;
#X msg 91 346 read -resize data/l.wav l;
#X msg 263 347 read -resize data/m.wav m;
#X msg 443 347 read -resize data/n.wav n;
#X obj 89 437 soundfiler;
#X obj 261 438 soundfiler;
#X obj 441 438 soundfiler;
#X msg 261 406 read -resize data/p.wav p;
#X msg 89 405 read -resize data/o.wav o;
#X msg 441 406 read -resize data/q.wav q;
#X obj 88 497 soundfiler;
#X obj 260 498 soundfiler;
#X obj 440 498 soundfiler;
#X msg 88 465 read -resize data/r.wav r;
#X msg 260 466 read -resize data/s.wav s;
#X msg 440 466 read -resize data/t.wav t;
#X msg 266 284 read -resize data/u .wav u;
#X obj -46 178 table j;
#X connect 1 0 0 0;
#X connect 2 0 1 0;
#X connect 2 0 7 0;
#X connect 2 0 8 0;
#X connect 2 0 28 0;
#X connect 2 0 30 0;
#X connect 2 0 32 0;
#X connect 2 0 36 0;
#X connect 2 0 37 0;
#X connect 2 0 38 0;
#X connect 2 0 42 0;
#X connect 2 0 62 0;
#X connect 2 0 43 0;
#X connect 2 0 47 0;
#X connect 2 0 48 0;
#X connect 2 0 49 0;
#X connect 2 0 54 0;
#X connect 2 0 53 0;
#X connect 2 0 55 0;
#X connect 2 0 59 0;
#X connect 2 0 60 0;
#X connect 2 0 61 0;
#X connect 7 0 5 0;
#X connect 8 0 6 0;
#X connect 28 0 27 0;
#X connect 30 0 29 0;
#X connect 32 0 31 0;
#X connect 36 0 33 0;
#X connect 37 0 34 0;
#X connect 38 0 35 0;
#X connect 42 0 39 0;
#X connect 43 0 41 0;
#X connect 47 0 44 0;
#X connect 48 0 45 0;
#X connect 49 0 46 0;
#X connect 53 0 51 0;
#X connect 54 0 50 0;
#X connect 55 0 52 0;
#X connect 59 0 56 0;
#X connect 60 0 57 0;
#X connect 61 0 58 0;
#X connect 62 0 40 0;
