#N canvas 211 93 1069 681 10;
#X obj 354 35 dumpOSC 8888;
#X obj 559 31 bng 15 250 50 0 empty empty empty 17 7 0 10 -262144 -1
-1;
#X obj 23 145 tabplay~ a;
#X obj 99 146 tabplay~ b;
#X obj 177 146 tabplay~ c;
#X obj 376 491 dac~;
#X obj 384 400 lop~;
#X msg 493 382 999;
#X obj 581 30 loadbang;
#X obj 493 349 loadbang;
#X obj 580 72 loadSamples;
#X obj 355 88 route a b c d e f g h i j k l m n o p q r s t u;
#X obj 403 147 tabplay~ f;
#X obj 325 147 tabplay~ e;
#X obj 249 146 tabplay~ d;
#X obj 292 206 tabplay~ g;
#X obj 368 207 tabplay~ h;
#X obj 446 207 tabplay~ i;
#X obj 518 207 tabplay~ j;
#X obj 594 208 tabplay~ k;
#X obj 672 208 tabplay~ l;
#X obj 661 267 tabplay~ m;
#X obj 737 268 tabplay~ n;
#X obj 815 268 tabplay~ o;
#X obj 887 268 tabplay~ p;
#X obj 963 269 tabplay~ q;
#X obj 1041 269 tabplay~ r;
#X obj 828 167 tabplay~ s;
#X obj 904 168 tabplay~ t;
#X obj 982 168 tabplay~ u;
#X connect 0 0 11 0;
#X connect 1 0 10 0;
#X connect 2 0 6 0;
#X connect 3 0 6 0;
#X connect 4 0 6 0;
#X connect 6 0 5 0;
#X connect 6 0 5 1;
#X connect 7 0 6 1;
#X connect 8 0 10 0;
#X connect 9 0 7 0;
#X connect 11 0 2 0;
#X connect 11 1 3 0;
#X connect 11 2 4 0;
#X connect 11 3 14 0;
#X connect 11 4 13 0;
#X connect 11 5 12 0;
#X connect 11 6 15 0;
#X connect 11 7 16 0;
#X connect 11 8 17 0;
#X connect 11 9 18 0;
#X connect 11 10 19 0;
#X connect 11 11 20 0;
#X connect 11 12 21 0;
#X connect 11 13 22 0;
#X connect 11 14 23 0;
#X connect 11 15 24 0;
#X connect 11 16 25 0;
#X connect 11 17 26 0;
#X connect 11 18 27 0;
#X connect 11 19 28 0;
#X connect 11 20 29 0;
#X connect 12 0 6 0;
#X connect 13 0 6 0;
#X connect 14 0 6 0;
#X connect 15 0 6 0;
#X connect 16 0 6 0;
#X connect 17 0 6 0;
#X connect 18 0 6 0;
#X connect 19 0 6 0;
#X connect 20 0 6 0;
#X connect 21 0 6 0;
#X connect 22 0 6 0;
#X connect 23 0 6 0;
#X connect 24 0 6 0;
#X connect 25 0 6 0;
#X connect 26 0 6 0;
#X connect 27 0 6 0;
#X connect 28 0 6 0;
#X connect 29 0 6 0;
